<svg width="204" height="40" viewBox="0 0 204 40" fill="none" xmlns="http://www.w3.org/2000/svg">
<g clip-path="url(#clip0_4_17538)">
<path d="M57.2434 30.8023L54.1085 39.4369H45.9019L60.3411 0H67.7345L82.1738 39.4308H73.9609L70.826 30.7962H57.2434V30.8023ZM64.0347 10.3542L59.1616 24.5716H68.9016L64.0347 10.3542ZM91.6654 39.4308H84.2844V0H91.9075V15.0954C92.8076 12.0254 95.7998 9.69422 99.3878 9.69422C105.229 9.69422 110.854 13.63 110.854 22.1919V27.3751C110.854 35.937 104.956 39.9939 99.3878 39.9939C95.4645 39.9939 92.9442 37.4447 91.6654 35.3981V39.4308ZM103.23 22.4765C103.23 18.5892 100.456 16.8453 97.569 16.8453C94.6824 16.8453 91.9075 18.5892 91.9075 22.4765V27.0966C91.9075 30.984 94.6824 32.7278 97.569 32.7278C100.456 32.7278 103.23 30.984 103.23 27.0966V22.4765ZM133.99 26.2428V27.6052C133.99 31.0385 135.952 33.297 139.651 33.297C142.364 33.297 144.158 32.0557 144.909 30.0878H152.65C151.44 36.1732 147.051 40 139.658 40C131.109 40 126.373 34.7078 126.373 26.6485V22.9307C126.373 14.8774 131.109 9.57917 139.658 9.57917C148.206 9.57917 152.942 14.8774 152.942 22.9307V26.2428H133.99ZM133.99 22.2101H145.251V21.6046C145.251 21.3624 145.245 21.1141 145.213 20.8719C144.866 17.9958 142.972 16.2822 139.645 16.2822C136.616 16.2822 134.772 17.7899 134.17 20.1695C134.033 20.7084 133.984 21.2655 133.984 21.8165V22.2101H133.99ZM124.728 33.9207V39.4308H121.903C116.59 39.4308 114.28 36.7242 114.28 31.9952V0H121.903V31.2262C121.903 32.8247 123.108 33.9207 124.591 33.9207H124.728Z" fill="#85356F"/>
<path d="M170.634 7.49016V39.4308H162.663V7.49016H151.403V0H181.895V7.49016H170.634Z" fill="#C177B6"/>
<path d="M190.139 9.5791C181.591 9.5791 176.854 14.8773 176.854 22.9306V26.6424C176.854 34.6957 181.591 39.9939 190.139 39.9939C198.687 39.9939 203.424 34.7017 203.424 26.6424V22.9246C203.424 14.8713 198.687 9.5791 190.139 9.5791ZM195.801 27.6051C195.801 31.0384 193.839 33.2969 190.139 33.2969C186.445 33.2969 184.478 31.0444 184.478 27.6051V21.9739C184.478 18.5407 186.439 16.2821 190.139 16.2821C193.833 16.2821 195.801 18.5346 195.801 21.9739V27.6051Z" fill="#C177B6"/>
<path d="M38.8043 36.1916H30.9956V7.61671C30.9956 3.40909 34.4906 0 38.8043 0V36.1916Z" fill="#C177B6"/>
<path d="M33.2815 38.2678L18.6339 13.5258C16.4802 9.87716 17.7585 5.22114 21.4929 3.11426L38.8043 32.3833L33.2815 38.2678Z" fill="#A94E99"/>
<path d="M34.7111 39.6621L9.33907 25.3746C5.60474 23.2739 4.32637 18.6117 6.48007 14.9692L38.6155 33.0651L34.7111 39.6621Z" fill="#85356F"/>
<path d="M38.8043 40H7.80872C3.49503 40 0 36.5909 0 32.3833H38.8043V40Z" fill="#662955"/>
</g>
<defs>
<clipPath id="clip0_4_17538">
<rect width="203.333" height="40" fill="white"/>
</clipPath>
</defs>
</svg>
