<svg width="17" height="16" viewBox="0 0 17 16" fill="none" xmlns="http://www.w3.org/2000/svg">
<path d="M5.71143 4.25V1.25V4.25ZM11.7114 4.25V1.25V4.25ZM4.96143 7.25H12.4614H4.96143ZM3.46143 14.75H13.9614C14.3593 14.75 14.7408 14.592 15.0221 14.3107C15.3034 14.0294 15.4614 13.6478 15.4614 13.25V4.25C15.4614 3.85218 15.3034 3.47064 15.0221 3.18934C14.7408 2.90804 14.3593 2.75 13.9614 2.75H3.46143C3.0636 2.75 2.68207 2.90804 2.40077 3.18934C2.11946 3.47064 1.96143 3.85218 1.96143 4.25V13.25C1.96143 13.6478 2.11946 14.0294 2.40077 14.3107C2.68207 14.592 3.0636 14.75 3.46143 14.75Z" stroke="#85356F" stroke-width="2" stroke-linecap="round" stroke-linejoin="round"/>
</svg>
