<svg width="42" height="31" viewBox="0 0 42 31" fill="none" xmlns="http://www.w3.org/2000/svg">
    <path fill-rule="evenodd" clip-rule="evenodd" d="M41.1208 1.37934C41.6832 1.94192 41.9991 2.70484 41.9991 3.50034C41.9991 4.29583 41.6832 5.05875 41.1208 5.62134L17.1208 29.6213C16.5582 30.1838 15.7953 30.4997 14.9998 30.4997C14.2043 30.4997 13.4413 30.1838 12.8788 29.6213L0.878757 17.6213C0.332282 17.0555 0.0298992 16.2977 0.0367345 15.5111C0.0435698 14.7245 0.359077 13.9721 0.915301 13.4159C1.47153 12.8597 2.22396 12.5442 3.01055 12.5373C3.79714 12.5305 4.55495 12.8329 5.12076 13.3793L14.9998 23.2583L36.8788 1.37934C37.4413 0.816923 38.2043 0.500977 38.9998 0.500977C39.7953 0.500977 40.5582 0.816923 41.1208 1.37934Z" fill="white"/>
</svg>
