<svg width="33" height="32" viewBox="0 0 33 32" fill="none" xmlns="http://www.w3.org/2000/svg">
<path d="M12.6665 16L15.3332 18.6667L20.6665 13.3333M28.6665 16C28.6665 17.5759 28.3561 19.1363 27.7531 20.5922C27.15 22.0481 26.2661 23.371 25.1518 24.4853C24.0375 25.5996 22.7146 26.4835 21.2587 27.0866C19.8028 27.6896 18.2424 28 16.6665 28C15.0906 28 13.5302 27.6896 12.0743 27.0866C10.6184 26.4835 9.29553 25.5996 8.18122 24.4853C7.06692 23.371 6.18301 22.0481 5.57995 20.5922C4.97689 19.1363 4.6665 17.5759 4.6665 16C4.6665 12.8174 5.93079 9.76516 8.18122 7.51472C10.4317 5.26428 13.4839 4 16.6665 4C19.8491 4 22.9013 5.26428 25.1518 7.51472C27.4022 9.76516 28.6665 12.8174 28.6665 16Z" stroke="#85356F" stroke-width="2.66667" stroke-linecap="round" stroke-linejoin="round"/>
</svg>
