<svg width="16" height="16" viewBox="0 0 16 16" fill="none" xmlns="http://www.w3.org/2000/svg">
<path d="M8.75 13.25L8.75 2.75M8.75 13.25C8.75 13.6478 8.59196 14.0294 8.31066 14.3107C8.02935 14.592 7.64782 14.75 7.25 14.75L2.75 14.75C2.35217 14.75 1.97064 14.592 1.68934 14.3107C1.40803 14.0294 1.25 13.6478 1.25 13.25L1.25 2.75C1.25 2.35217 1.40804 1.97064 1.68934 1.68934C1.97064 1.40803 2.35218 1.25 2.75 1.25L7.25 1.25C7.64782 1.25 8.02936 1.40803 8.31066 1.68934C8.59196 1.97064 8.75 2.35217 8.75 2.75M8.75 13.25L10.25 13.25C10.6478 13.25 11.0294 13.092 11.3107 12.8107C11.592 12.5294 11.75 12.1478 11.75 11.75M8.75 2.75L10.25 2.75C10.6478 2.75 11.0294 2.90804 11.3107 3.18934C11.592 3.47064 11.75 3.85218 11.75 4.25M11.75 11.75L13.25 11.75C13.6478 11.75 14.0294 11.592 14.3107 11.3107C14.592 11.0294 14.75 10.6478 14.75 10.25L14.75 5.75C14.75 5.35218 14.592 4.97064 14.3107 4.68934C14.0294 4.40804 13.6478 4.25 13.25 4.25L11.75 4.25M11.75 11.75L11.75 4.25" stroke="#787471" stroke-width="1.5" stroke-linecap="round" stroke-linejoin="round"/>
</svg>
