<svg width="5" height="15" viewBox="0 0 5 15" fill="none" xmlns="http://www.w3.org/2000/svg">
<path d="M2.3 4.1C1.82261 4.1 1.36477 3.91036 1.02721 3.57279C0.689643 3.23523 0.5 2.77739 0.5 2.3C0.5 1.82261 0.689643 1.36477 1.02721 1.02721C1.36477 0.689642 1.82261 0.5 2.3 0.5C2.77739 0.5 3.23523 0.689642 3.57279 1.02721C3.91036 1.36477 4.1 1.82261 4.1 2.3C4.1 2.77739 3.91036 3.23523 3.57279 3.57279C3.23523 3.91036 2.77739 4.1 2.3 4.1ZM2.3 9.5C1.82261 9.5 1.36477 9.31036 1.02721 8.97279C0.689643 8.63523 0.5 8.17739 0.5 7.7C0.5 7.22261 0.689643 6.76477 1.02721 6.42721C1.36477 6.08964 1.82261 5.9 2.3 5.9C2.77739 5.9 3.23523 6.08964 3.57279 6.42721C3.91036 6.76477 4.1 7.22261 4.1 7.7C4.1 8.17739 3.91036 8.63523 3.57279 8.97279C3.23523 9.31036 2.77739 9.5 2.3 9.5ZM2.3 14.9C1.82261 14.9 1.36477 14.7104 1.02721 14.3728C0.689643 14.0352 0.5 13.5774 0.5 13.1C0.5 12.6226 0.689643 12.1648 1.02721 11.8272C1.36477 11.4896 1.82261 11.3 2.3 11.3C2.77739 11.3 3.23523 11.4896 3.57279 11.8272C3.91036 12.1648 4.1 12.6226 4.1 13.1C4.1 13.5774 3.91036 14.0352 3.57279 14.3728C3.23523 14.7104 2.77739 14.9 2.3 14.9Z" fill="#787471"/>
</svg>
