<svg width="91" height="93" viewBox="0 0 91 93" fill="none" xmlns="http://www.w3.org/2000/svg">
<path d="M43.4532 4.7014C43.8739 2.43286 47.1261 2.43287 47.5468 4.7014C49.3526 14.4379 61.2382 18.2979 68.4251 11.4817C70.0995 9.89363 72.7306 11.8042 71.7369 13.8867C67.472 22.8246 74.8176 32.93 84.6403 31.6379C86.929 31.3368 87.9339 34.4282 85.9053 35.5292C77.1987 40.2545 77.1987 52.7455 85.9053 57.4708C87.9339 58.5718 86.9289 61.6632 84.6403 61.3621C74.8176 60.07 67.472 70.1754 71.7369 79.1133C72.7306 81.1958 70.0995 83.1064 68.4251 81.5182C61.2382 74.7021 49.3526 78.5621 47.5468 88.2986C47.1261 90.5671 43.8739 90.5671 43.4532 88.2986C41.6474 78.5621 29.7618 74.7021 22.5749 81.5182C20.9005 83.1064 18.2694 81.1958 19.2631 79.1133C23.528 70.1754 16.1824 60.07 6.35966 61.3621C4.07104 61.6632 3.06608 58.5718 5.09465 57.4708C13.8013 52.7455 13.8013 40.2545 5.09465 35.5292C3.06607 34.4282 4.07104 31.3368 6.35966 31.6379C16.1824 32.93 23.5281 22.8246 19.2631 13.8867C18.2694 11.8042 20.9005 9.89363 22.5749 11.4817C29.7618 18.2979 41.6474 14.4379 43.4532 4.7014Z" stroke="#85356F" stroke-width="6" stroke-linecap="round" stroke-linejoin="round"/>
<path d="M41.7407 65L60 44.0448H47.6481L60 29H47.6481L31 51.097H44.0321L41.7407 65Z" stroke="#85356F" stroke-width="6" stroke-linecap="round" stroke-linejoin="round"/>
</svg>
