<svg width="21" height="20" viewBox="0 0 21 20" fill="none" xmlns="http://www.w3.org/2000/svg">
<path fill-rule="evenodd" clip-rule="evenodd" d="M7.78568 2.79997C6.47854 2.79997 5.22494 3.30568 4.30065 4.20586C3.37637 5.10603 2.85711 6.32693 2.85711 7.59997C2.85711 8.87301 3.37637 10.0939 4.30065 10.9941C5.22494 11.8943 6.47854 12.4 7.78568 12.4C9.09282 12.4 10.3464 11.8943 11.2707 10.9941C12.195 10.0939 12.7143 8.87301 12.7143 7.59997C12.7143 6.32693 12.195 5.10603 11.2707 4.20586C10.3464 3.30568 9.09282 2.79997 7.78568 2.79997ZM0.392822 7.59997C0.392674 6.46681 0.66715 5.34962 1.19393 4.33926C1.7207 3.32889 2.48491 2.45389 3.42438 1.7854C4.36386 1.11691 5.45208 0.673822 6.60054 0.492167C7.749 0.310512 8.92527 0.395421 10.0337 0.739988C11.1421 1.08455 12.1513 1.67905 12.9794 2.47512C13.8074 3.2712 14.4308 4.24637 14.7989 5.32133C15.1669 6.39629 15.2693 7.54068 15.0976 8.66143C14.9259 9.78218 14.4851 10.8476 13.8109 11.7712L19.7461 17.5516C19.9705 17.7779 20.0947 18.081 20.0919 18.3957C20.0891 18.7103 19.9595 19.0113 19.7311 19.2338C19.5026 19.4562 19.1936 19.5824 18.8705 19.5852C18.5475 19.5879 18.2362 19.467 18.0038 19.2484L12.0698 13.4692C10.9638 14.2351 9.66266 14.6898 8.30894 14.7833C6.95522 14.8769 5.60118 14.6057 4.39519 13.9995C3.1892 13.3934 2.17781 12.4756 1.47184 11.3468C0.765866 10.218 0.392559 8.92169 0.392822 7.59997Z" fill="#787471"/>
</svg>
