<svg width="16" height="14" viewBox="0 0 16 14" fill="none" xmlns="http://www.w3.org/2000/svg">
<path d="M4.25 1V13V1ZM11.75 1V13V1ZM1.25 4H4.25H1.25ZM11.75 4H14.75H11.75ZM1.25 7H14.75H1.25ZM1.25 10H4.25H1.25ZM11.75 10H14.75H11.75ZM2 13H14C14.1989 13 14.3897 12.921 14.5303 12.7803C14.671 12.6397 14.75 12.4489 14.75 12.25V1.75C14.75 1.55109 14.671 1.36032 14.5303 1.21967C14.3897 1.07902 14.1989 1 14 1H2C1.80109 1 1.61032 1.07902 1.46967 1.21967C1.32902 1.36032 1.25 1.55109 1.25 1.75V12.25C1.25 12.4489 1.32902 12.6397 1.46967 12.7803C1.61032 12.921 1.80109 13 2 13Z" stroke="#787471" stroke-width="1.5" stroke-linecap="round" stroke-linejoin="round"/>
</svg>
