<svg width="16" height="20" viewBox="0 0 16 20" fill="none" xmlns="http://www.w3.org/2000/svg">
<path fill-rule="evenodd" clip-rule="evenodd" d="M5.95157 0.751496C5.72653 0.97654 5.6001 1.28176 5.6001 1.60002C5.6001 1.91828 5.72653 2.22351 5.95157 2.44855C6.17661 2.6736 6.48184 2.80002 6.8001 2.80002H9.2001C9.51836 2.80002 9.82358 2.6736 10.0486 2.44855C10.2737 2.22351 10.4001 1.91828 10.4001 1.60002C10.4001 1.28176 10.2737 0.97654 10.0486 0.751496C9.82358 0.526453 9.51836 0.400024 9.2001 0.400024H6.8001C6.48184 0.400024 6.17661 0.526453 5.95157 0.751496ZM1.50299 2.30292C1.95308 1.85283 2.56353 1.59998 3.20005 1.59998C3.20005 2.55475 3.57933 3.47043 4.25446 4.14556C4.9296 4.82069 5.84527 5.19998 6.80005 5.19998H9.20005C10.1548 5.19998 11.0705 4.82069 11.7456 4.14556C12.4208 3.47043 12.8 2.55475 12.8 1.59998C13.4366 1.59998 14.047 1.85283 14.4971 2.30292C14.9472 2.75301 15.2 3.36346 15.2 3.99998V17.2C15.2 17.8365 14.9472 18.4469 14.4971 18.897C14.047 19.3471 13.4366 19.6 12.8 19.6H3.20005C2.56353 19.6 1.95308 19.3471 1.50299 18.897C1.05291 18.4469 0.800049 17.8365 0.800049 17.2V3.99998C0.800049 3.36346 1.05291 2.75301 1.50299 2.30292Z" fill="#85356F"/>
</svg>
