<svg width="14" height="14" viewBox="0 0 12 12" fill="none" xmlns="http://www.w3.org/2000/svg">
  <path d="M11.0233 7.10024V5.28117C11.0233 2.36186 8.77674 0 6 0C3.22326 0 0.976744 2.36186 0.976744 5.28117V7.10024C0.418605 7.17359 0 7.67237 0 8.25917V10.7531C0 11.3985 0.502326 12 1.11628 12H2.51163C2.74884 12 2.93023 11.7359 2.93023 11.4866V7.52567C2.93023 7.27628 2.74884 7.15892 2.51163 7.15892H1.81395V5.28117C1.81395 2.84597 3.68372 0.880196 6 0.880196C8.31628 0.880196 10.186 2.84597 10.186 5.28117V7.15892H9.48837C9.25116 7.15892 9.06977 7.27628 9.06977 7.52567V11.4866C9.06977 11.7359 9.25116 12 9.48837 12H10.8837C11.4977 12 12 11.3985 12 10.7531V8.25917C12 7.67237 11.5814 7.17359 11.0233 7.10024Z" fill="#5C5C5C"/>
</svg>