<svg width="43" height="42" viewBox="0 0 43 42" fill="none" xmlns="http://www.w3.org/2000/svg">
<path d="M29.0519 16.0628C28.6769 10.2503 26.3228 4.58366 21.9061 0.166992C17.6317 4.41946 15.0101 10.0542 14.5103 16.0628C17.1769 17.4795 19.6353 19.3128 21.7811 21.542C23.9269 19.3337 26.3853 17.5003 29.0519 16.0628V16.0628ZM21.8853 6.81283C23.1978 8.95866 24.1144 11.3545 24.5936 13.8545C23.6144 14.4795 22.6978 15.167 21.8019 15.8962C20.9269 15.1878 19.9894 14.5003 19.0311 13.8753C19.5519 11.3753 20.5103 8.97949 21.8853 6.81283V6.81283ZM21.7811 28.1878C20.0838 25.5927 17.9227 23.3327 15.4061 21.5212C15.1353 21.3337 14.8436 21.1878 14.5728 20.9795C14.8436 21.167 15.1353 21.3337 15.3853 21.5003C11.1867 18.4584 6.13244 16.8247 0.947754 16.8337C0.947754 27.917 7.94775 37.292 17.6769 40.7712C18.9894 41.2503 20.3644 41.6045 21.7811 41.8337C23.1978 41.5837 24.5519 41.2295 25.8853 40.7712C35.6144 37.292 42.6144 27.917 42.6144 16.8337C33.9061 16.8337 26.2603 21.3545 21.7811 28.1878ZM24.5311 36.8337C23.6144 37.1462 22.6978 37.3962 21.7603 37.6045C20.8436 37.417 19.9478 37.167 19.0936 36.8545C12.2394 34.3962 7.21859 28.542 5.65609 21.542C7.94775 22.0837 10.1353 23.0212 12.1561 24.3128L12.1144 24.3337C12.3853 24.5212 12.6561 24.7087 12.9269 24.8545L13.0728 24.9378C15.1353 26.4378 16.9061 28.292 18.3019 30.4587L21.7811 35.792L25.2603 30.4795C26.6672 28.3284 28.4531 26.4507 30.5311 24.9378L30.6769 24.8337C30.8644 24.7295 31.0519 24.6045 31.2394 24.4795L31.2186 24.4378C33.2603 23.0837 35.5311 22.0837 37.9061 21.5212C36.3436 28.542 31.3436 34.3962 24.5311 36.8337V36.8337ZM15.5103 21.5837C15.4686 21.5628 15.4269 21.5212 15.4061 21.5003C15.4061 21.5003 15.4269 21.5003 15.4269 21.5212C15.4478 21.542 15.4686 21.5628 15.5103 21.5837V21.5837Z" fill="#85356F"/>
</svg>
