<svg width="17" height="16" viewBox="0 0 17 16" fill="none" xmlns="http://www.w3.org/2000/svg">
  <path d="M10.7964 6.104C10.6524 3.872 9.74839 1.696 8.05239 0C6.41104 1.63295 5.40432 3.79668 5.21239 6.104C6.23639 6.648 7.18039 7.352 8.00439 8.208C8.82839 7.36 9.77239 6.656 10.7964 6.104ZM8.04439 2.552C8.54839 3.376 8.90039 4.296 9.08439 5.256C8.7084 5.496 8.35639 5.76 8.01239 6.04C7.67639 5.768 7.31639 5.504 6.94839 5.264C7.1484 4.304 7.51639 3.384 8.04439 2.552ZM8.00439 10.76C7.35265 9.76348 6.52278 8.89564 5.55639 8.2C5.45239 8.128 5.34039 8.072 5.23639 7.992C5.34039 8.064 5.45239 8.128 5.54839 8.192C3.93615 7.02391 1.99531 6.39656 0.00439453 6.4C0.00439453 10.656 2.69239 14.256 6.42839 15.592C6.93239 15.776 7.46039 15.912 8.00439 16C8.54839 15.904 9.06839 15.768 9.58039 15.592C13.3164 14.256 16.0044 10.656 16.0044 6.4C12.6604 6.4 9.72439 8.136 8.00439 10.76ZM9.06039 14.08C8.70839 14.2 8.35639 14.296 7.99639 14.376C7.64439 14.304 7.30039 14.208 6.97239 14.088C4.34039 13.144 2.41239 10.896 1.81239 8.208C2.69239 8.416 3.53239 8.776 4.30839 9.272L4.29239 9.28C4.39639 9.352 4.50039 9.424 4.60439 9.48L4.66039 9.512C5.45239 10.088 6.13239 10.8 6.66839 11.632L8.00439 13.68L9.34039 11.64C9.88067 10.814 10.5665 10.093 11.3644 9.512L11.4204 9.472C11.4924 9.432 11.5644 9.384 11.6364 9.336L11.6284 9.32C12.4124 8.8 13.2844 8.416 14.1964 8.2C13.5964 10.896 11.6764 13.144 9.06039 14.08ZM5.59639 8.224C5.58039 8.216 5.56439 8.2 5.55639 8.192C5.55639 8.192 5.56439 8.192 5.56439 8.2C5.57239 8.208 5.58039 8.216 5.59639 8.224Z" fill="#787471"/>
</svg>
