<svg width="33" height="32" viewBox="0 0 33 32" fill="none" xmlns="http://www.w3.org/2000/svg">
<path d="M20.1042 19.7707C19.104 20.7705 17.7477 21.3322 16.3335 21.3322C14.9193 21.3322 13.563 20.7705 12.5628 19.7707H20.1042ZM12.3335 13.3333H12.3468H12.3335ZM20.3335 13.3333H20.3468H20.3335ZM28.3335 16C28.3335 17.5759 28.0231 19.1363 27.4201 20.5922C26.817 22.0481 25.9331 23.371 24.8188 24.4853C23.7045 25.5996 22.3816 26.4835 20.9257 27.0866C19.4698 27.6896 17.9094 28 16.3335 28C14.7576 28 13.1972 27.6896 11.7413 27.0866C10.2854 26.4835 8.96252 25.5996 7.84821 24.4853C6.73391 23.371 5.85 22.0481 5.24694 20.5922C4.64389 19.1363 4.3335 17.5759 4.3335 16C4.3335 12.8174 5.59778 9.76516 7.84821 7.51472C10.0987 5.26428 13.1509 4 16.3335 4C19.5161 4 22.5683 5.26428 24.8188 7.51472C27.0692 9.76516 28.3335 12.8174 28.3335 16Z" stroke="#85356F" stroke-width="2.66667" stroke-linecap="round" stroke-linejoin="round"/>
</svg>
