<svg width="16" height="14" viewBox="0 0 16 14" fill="none" xmlns="http://www.w3.org/2000/svg">
<path d="M13.25 13H2.75C2.35218 13 1.97064 12.842 1.68934 12.5607C1.40804 12.2794 1.25 11.8978 1.25 11.5V2.5C1.25 2.10218 1.40804 1.72064 1.68934 1.43934C1.97064 1.15804 2.35218 1 2.75 1H10.25C10.6478 1 11.0294 1.15804 11.3107 1.43934C11.592 1.72064 11.75 2.10218 11.75 2.5V3.25M13.25 13C12.8522 13 12.4706 12.842 12.1893 12.5607C11.908 12.2794 11.75 11.8978 11.75 11.5V3.25M13.25 13C13.6478 13 14.0294 12.842 14.3107 12.5607C14.592 12.2794 14.75 11.8978 14.75 11.5V4.75C14.75 4.35218 14.592 3.97064 14.3107 3.68934C14.0294 3.40804 13.6478 3.25 13.25 3.25H11.75M8.75 1H5.75M4.25 10H8.75M4.25 4H8.75V7H4.25V4Z" stroke="#787471" stroke-width="1.5" stroke-linecap="round" stroke-linejoin="round"/>
</svg>
