<svg width="50" height="50" viewBox="0 0 93 93" fill="none" xmlns="http://www.w3.org/2000/svg">
<path fill-rule="evenodd" clip-rule="evenodd" d="M66.65 57.3798C67.07 54.0898 67.33 50.6398 67.33 47.0198C67.33 43.3998 67.08 39.9398 66.65 36.6598H79.54C80.55 39.9498 81.14 43.3998 81.14 47.0198C81.14 50.6398 80.55 54.0998 79.54 57.3798H66.65ZM59.49 78.6898C62.1 74.6498 64.21 69.4198 65.55 63.2698H76.92C73.13 70.2698 66.98 75.7399 59.49 78.6898ZM47.02 81.1398C42.3 81.1398 37.25 74.3998 34.64 63.6098L34.98 63.2698H59.58C56.87 74.3098 51.73 81.1398 47.02 81.1398ZM25.11 73.1298L29.83 68.4098C31.09 72.3698 32.7 75.9099 34.55 78.6898C31.09 77.3499 27.9 75.4098 25.11 73.1298ZM61.34 47.0198C61.34 50.7298 61.09 54.1798 60.66 57.3798H40.86L60.75 37.4998C61.08 40.4398 61.34 43.6498 61.34 47.0198ZM76.92 30.6698H67.49L73.13 25.1098C74.56 26.8798 75.83 28.7398 76.92 30.6698ZM77.35 20.8998L85.94 12.3098C87.12 11.1298 87.12 9.27984 85.94 8.09984C84.76 6.91984 82.91 6.91984 81.73 8.09984L8.10003 81.7198C6.92003 82.8998 6.92003 84.7498 8.10003 85.9298C8.69003 86.5198 9.45003 86.7698 10.21 86.7698C10.97 86.7698 11.73 86.5198 12.32 85.9298L20.91 77.3398C27.9 83.3998 37.08 87.0298 47.03 87.0298C69.1 87.0298 87.05 69.0798 87.05 47.0098C87.03 37.0698 83.33 27.8998 77.35 20.8998Z" fill="#D49FCA"/>
<path fill-rule="evenodd" clip-rule="evenodd" d="M34.55 15.34C31.94 19.38 29.83 24.61 28.49 30.76H17.11C20.9 23.77 27.05 18.29 34.55 15.34ZM18.29 65.3C17.87 64.62 17.45 64.04 17.11 63.36H20.22L26.12 57.46H14.58C13.57 54.17 12.98 50.72 12.98 47.1C12.98 43.48 13.57 40.02 14.58 36.74H27.47C27.05 40.03 26.79 43.48 26.79 47.1C26.79 50.3 26.96 53.42 27.29 56.37L32.77 50.89C32.69 49.55 32.69 48.28 32.69 47.02C32.69 43.31 32.94 39.86 33.37 36.66H46.85L52.75 30.76H34.55C37.16 19.8 42.3 12.98 47.02 12.98C50.98 12.98 55.19 17.7 57.97 25.62L62.52 21.07C61.59 18.96 60.58 17.03 59.49 15.34C61.51 16.1 63.45 17.11 65.3 18.29L69.6 13.99C63.11 9.61 55.36 7 47.02 7C24.95 7 7 24.95 7 47.02C7 55.36 9.61 63.11 13.99 69.6L18.29 65.3Z" fill="#85356F"/>
</svg>
