<svg width="15" height="15" viewBox="0 0 15 15" fill="none" xmlns="http://www.w3.org/2000/svg">
<path d="M6.25 2.75H2.5C2.10218 2.75 1.72064 2.90803 1.43934 3.18934C1.15804 3.47064 1 3.85217 1 4.25V12.5C1 12.8978 1.15804 13.2794 1.43934 13.5607C1.72064 13.842 2.10218 14 2.5 14H10.75C11.1478 14 11.5294 13.842 11.8107 13.5607C12.092 13.2794 12.25 12.8978 12.25 12.5V8.75M11.1895 1.6895C11.3279 1.54623 11.4934 1.43196 11.6764 1.35335C11.8594 1.27473 12.0562 1.23335 12.2554 1.23162C12.4546 1.22989 12.6521 1.26785 12.8364 1.34327C13.0208 1.41869 13.1883 1.53007 13.3291 1.67091C13.4699 1.81175 13.5813 1.97922 13.6567 2.16357C13.7322 2.34791 13.7701 2.54543 13.7684 2.7446C13.7666 2.94377 13.7253 3.1406 13.6467 3.32361C13.568 3.50661 13.4538 3.67213 13.3105 3.8105L6.871 10.25H4.75V8.129L11.1895 1.6895Z" stroke="#787471" stroke-width="1.5" stroke-linecap="round" stroke-linejoin="round"/>
</svg>
