<svg width="48" height="48" viewBox="0 0 48 48" fill="none" xmlns="http://www.w3.org/2000/svg">
<path d="M26 38.0004L26 10.0004M26 38.0004C26 39.0612 25.5786 40.0786 24.8284 40.8288C24.0783 41.5789 23.0609 42.0004 22 42.0004L10 42.0003C8.93914 42.0003 7.92172 41.5789 7.17158 40.8288C6.42143 40.0786 6 39.0612 6 38.0003L6 10.0003C6 8.93948 6.42143 7.92207 7.17158 7.17192C7.92172 6.42178 8.93914 6.00035 10 6.00035L22 6.00035C23.0609 6.00035 24.0783 6.42178 24.8284 7.17192C25.5786 7.92207 26 8.93948 26 10.0004M26 38.0004L30 38.0004C31.0609 38.0004 32.0783 37.5789 32.8284 36.8288C33.5786 36.0786 34 35.0612 34 34.0004M26 10.0004L30 10.0004C31.0609 10.0004 32.0783 10.4218 32.8284 11.1719C33.5786 11.9221 34 12.9395 34 14.0004M34 34.0004L38 34.0004C39.0609 34.0004 40.0783 33.5789 40.8284 32.8288C41.5786 32.0786 42 31.0612 42 30.0004L42 18.0004C42 16.9395 41.5786 15.9221 40.8284 15.1719C40.0783 14.4218 39.0609 14.0004 38 14.0004L34 14.0004M34 34.0004L34 14.0004" stroke="#85356F" stroke-width="4" stroke-linecap="round" stroke-linejoin="round"/>
</svg>
