<svg width="18" height="19" viewBox="0 0 18 19" fill="none" xmlns="http://www.w3.org/2000/svg">
<path d="M9.75 14.75L9.75 4.25M9.75 14.75C9.75 15.1478 9.59196 15.5294 9.31066 15.8107C9.02935 16.092 8.64782 16.25 8.25 16.25L3.75 16.25C3.35217 16.25 2.97064 16.092 2.68934 15.8107C2.40803 15.5294 2.25 15.1478 2.25 14.75L2.25 4.25C2.25 3.85217 2.40804 3.47064 2.68934 3.18934C2.97064 2.90803 3.35218 2.75 3.75 2.75L8.25 2.75C8.64782 2.75 9.02936 2.90803 9.31066 3.18934C9.59196 3.47064 9.75 3.85217 9.75 4.25M9.75 14.75L11.25 14.75C11.6478 14.75 12.0294 14.592 12.3107 14.3107C12.592 14.0294 12.75 13.6478 12.75 13.25M9.75 4.25L11.25 4.25C11.6478 4.25 12.0294 4.40804 12.3107 4.68934C12.592 4.97064 12.75 5.35218 12.75 5.75M12.75 13.25L14.25 13.25C14.6478 13.25 15.0294 13.092 15.3107 12.8107C15.592 12.5294 15.75 12.1478 15.75 11.75L15.75 7.25C15.75 6.85218 15.592 6.47064 15.3107 6.18934C15.0294 5.90804 14.6478 5.75 14.25 5.75L12.75 5.75M12.75 13.25L12.75 5.75" stroke="#787471" stroke-width="1.5" stroke-linecap="round" stroke-linejoin="round"/>
</svg>
