<svg width="24" height="25" viewBox="0 0 24 25" fill="none" xmlns="http://www.w3.org/2000/svg">
<path fill-rule="evenodd" clip-rule="evenodd" d="M12 10.3999C13.2731 10.3999 14.494 9.89421 15.3942 8.99404C16.2943 8.09386 16.8001 6.87297 16.8001 5.59993C16.8001 4.32689 16.2943 3.10599 15.3942 2.20581C14.494 1.30564 13.2731 0.799927 12 0.799927C10.727 0.799927 9.50611 1.30564 8.60594 2.20581C7.70576 3.10599 7.20005 4.32689 7.20005 5.59993C7.20005 6.87297 7.70576 8.09386 8.60594 8.99404C9.50611 9.89421 10.727 10.3999 12 10.3999ZM0.800049 24.7999C0.800049 23.3291 1.08975 21.8727 1.6526 20.5139C2.21545 19.155 3.04044 17.9203 4.08045 16.8803C5.12047 15.8403 6.35515 15.0153 7.71399 14.4525C9.07284 13.8896 10.5292 13.5999 12 13.5999C13.4709 13.5999 14.9273 13.8896 16.2861 14.4525C17.645 15.0153 18.8796 15.8403 19.9196 16.8803C20.9597 17.9203 21.7846 19.155 22.3475 20.5139C22.9104 21.8727 23.2001 23.3291 23.2001 24.7999H0.800049Z" fill="#85356F"/>
</svg>
