<svg width="14" height="14" viewBox="0 0 14 14" fill="none" xmlns="http://www.w3.org/2000/svg">
<path d="M1 2.5C1 2.10218 1.15804 1.72064 1.43934 1.43934C1.72064 1.15804 2.10218 1 2.5 1H4C4.39783 1 4.77936 1.15804 5.06066 1.43934C5.34196 1.72064 5.5 2.10218 5.5 2.5V4C5.5 4.39783 5.34196 4.77936 5.06066 5.06066C4.77936 5.34196 4.39783 5.5 4 5.5H2.5C2.10218 5.5 1.72064 5.34196 1.43934 5.06066C1.15804 4.77936 1 4.39783 1 4V2.5ZM8.5 2.5C8.5 2.10218 8.65804 1.72064 8.93934 1.43934C9.22065 1.15804 9.60218 1 10 1H11.5C11.8978 1 12.2794 1.15804 12.5607 1.43934C12.842 1.72064 13 2.10218 13 2.5V4C13 4.39783 12.842 4.77936 12.5607 5.06066C12.2794 5.34196 11.8978 5.5 11.5 5.5H10C9.60218 5.5 9.22065 5.34196 8.93934 5.06066C8.65804 4.77936 8.5 4.39783 8.5 4V2.5ZM1 10C1 9.60218 1.15804 9.22065 1.43934 8.93934C1.72064 8.65804 2.10218 8.5 2.5 8.5H4C4.39783 8.5 4.77936 8.65804 5.06066 8.93934C5.34196 9.22065 5.5 9.60218 5.5 10V11.5C5.5 11.8978 5.34196 12.2794 5.06066 12.5607C4.77936 12.842 4.39783 13 4 13H2.5C2.10218 13 1.72064 12.842 1.43934 12.5607C1.15804 12.2794 1 11.8978 1 11.5V10ZM8.5 10C8.5 9.60218 8.65804 9.22065 8.93934 8.93934C9.22065 8.65804 9.60218 8.5 10 8.5H11.5C11.8978 8.5 12.2794 8.65804 12.5607 8.93934C12.842 9.22065 13 9.60218 13 10V11.5C13 11.8978 12.842 12.2794 12.5607 12.5607C12.2794 12.842 11.8978 13 11.5 13H10C9.60218 13 9.22065 12.842 8.93934 12.5607C8.65804 12.2794 8.5 11.8978 8.5 11.5V10Z" stroke="#787471" stroke-width="1.5" stroke-linecap="round" stroke-linejoin="round"/>
</svg>
