<svg width="16" height="14" viewBox="0 0 16 14" fill="none" color="#787471" xmlns="http://www.w3.org/2000/svg">
<path d="M10.652 4.348C11.0003 4.69624 11.2766 5.10968 11.4652 5.56471C11.6537 6.01975 11.7507 6.50746 11.7507 7.00001C11.7507 7.49255 11.6537 7.98026 11.4652 8.4353C11.2766 8.89033 11.0003 9.30377 10.652 9.65201M12.773 2.22701C13.3998 2.8538 13.897 3.59792 14.2362 4.41687C14.5755 5.23583 14.7501 6.11358 14.7501 7.00001C14.7501 7.88643 14.5755 8.76418 14.2362 9.58314C13.897 10.4021 13.3998 11.1462 12.773 11.773M3.1895 9.25001H2C1.80109 9.25001 1.61032 9.17099 1.46967 9.03033C1.32902 8.88968 1.25 8.69892 1.25 8.50001V5.50001C1.25 5.30109 1.32902 5.11033 1.46967 4.96968C1.61032 4.82902 1.80109 4.75001 2 4.75001H3.1895L6.71975 1.21976C7.19225 0.747255 8 1.08176 8 1.75001V12.25C8 12.9183 7.19225 13.2528 6.71975 12.7803L3.1895 9.25001Z" stroke="currentColor" stroke-width="1.5" stroke-linecap="round" stroke-linejoin="round"/>
</svg>
