<svg width="20" height="19" viewBox="0 0 20 19" fill="none"
    xmlns="http://www.w3.org/2000/svg">
    <path d="M9.99995 0.510742L10.215 0.871742C11.1885 2.50674 11.75 4.43524 11.75 6.49974C11.75 6.98374 11.719 7.46074 11.6595 7.92774C13.0283 6.0036 15.0754 4.66956 17.3885 4.19424L17.7619 4.11624L17.684 4.48974C17.2019 6.83624 15.8364 8.90771 13.87 10.2757C14.078 10.2582 14.288 10.2497 14.5 10.2497C16.2085 10.2497 17.8014 10.8182 19.1469 11.7977L19.4249 11.9997L19.1469 12.2017C17.8014 13.1812 16.2085 13.7497 14.5 13.7497C13.765 13.7497 13.0505 13.6447 12.3685 13.4462C12.4935 13.6127 12.61 13.7882 12.7165 13.9727C13.2955 14.9757 13.5015 16.1027 13.3825 17.2217L13.3465 17.5637L13.0325 17.4237C12.004 16.9672 11.1305 16.2257 10.5515 15.2227C10.5338 15.1925 10.5166 15.162 10.5 15.1312V18.4997H9.49995V15.1312C9.48311 15.1619 9.46594 15.1924 9.44845 15.2227C8.86945 16.2257 7.99645 16.9672 6.96745 17.4242L6.65345 17.5637L6.61745 17.2217C6.49895 16.1027 6.70445 14.9757 7.28345 13.9727C7.38995 13.7882 7.50645 13.6127 7.63195 13.4462C6.93922 13.6477 6.2214 13.7499 5.49995 13.7497C3.79145 13.7497 2.19845 13.1812 0.852951 12.2017L0.574951 11.9997L0.852951 11.7977C2.19845 10.8182 3.79145 10.2497 5.49995 10.2497C5.71195 10.2497 5.92195 10.2582 6.12995 10.2757C4.16353 8.90768 2.79808 6.83622 2.31595 4.48974L2.23795 4.11574L2.61195 4.19374C4.92501 4.66906 6.97207 6.0031 8.34095 7.92724C8.28031 7.45383 8.24992 6.97703 8.24995 6.49974C8.24995 4.43524 8.81145 2.50674 9.78495 0.871742L9.99995 0.510742Z" fill="currentColor"/>
</svg>
