<svg width="14" height="22" viewBox="0 0 14 22" fill="none"
    xmlns="http://www.w3.org/2000/svg">
    <path d="M8.07692 4.09302C9.26154 4.09302 10.2308 3.17209 10.2308 2.04651C10.2308 0.92093 9.26154 0 8.07692 0C6.89231 0 5.92308 0.92093 5.92308 2.04651C5.92308 3.17209 6.89231 4.09302 8.07692 4.09302ZM4.09231 7.57209L1.07692 22H3.33846L5.27692 13.814L7.53846 15.8605V22H9.69231V14.3256L7.43077 12.2791L8.07692 9.2093C9.47692 10.7442 11.6308 11.7674 14 11.7674V9.72093C11.9538 9.72093 10.2308 8.69767 9.36923 7.26512L8.29231 5.62791C7.86154 5.01395 7.21538 4.60465 6.46154 4.60465C6.13846 4.60465 5.92308 4.70698 5.6 4.70698L0 6.95814V11.7674H2.15385V8.28837L4.09231 7.57209Z" fill="currentColor"/>
</svg>
