<svg width="20" height="20" viewBox="0 0 20 20" fill="none"
    xmlns="http://www.w3.org/2000/svg">
    <path d="M10 0C4.48 0 0 4.48 0 10C0 15.52 4.48 20 10 20C15.52 20 20 15.52 20 10C20 4.48 15.52 0 10 0ZM3.61 14.78C2.6 13.45 2 11.8 2 10C2 8.2 2.6 6.55 3.61 5.22C4.35207 5.77655 4.95437 6.49824 5.3692 7.3279C5.78403 8.15756 6 9.07241 6 10C6 10.9276 5.78403 11.8424 5.3692 12.6721C4.95437 13.5018 4.35207 14.2234 3.61 14.78ZM10 18C8.11 18 6.37 17.34 5 16.24C6.83 14.77 8 12.53 8 10C8 7.47 6.83 5.23 5 3.76C6.37 2.66 8.11 2 10 2C11.89 2 13.63 2.66 15 3.76C13.17 5.23 12 7.47 12 10C12 12.53 13.17 14.77 15 16.24C13.5832 17.3805 11.8188 18.0015 10 18ZM16.39 14.78C15.6479 14.2234 15.0456 13.5018 14.6308 12.6721C14.216 11.8424 14 10.9276 14 10C14 9.07241 14.216 8.15756 14.6308 7.3279C15.0456 6.49824 15.6479 5.77655 16.39 5.22C17.4 6.55 18 8.2 18 10C18 11.8 17.4 13.45 16.39 14.78Z" fill="currentColor"/>
</svg>
