<svg width="21" height="22" viewBox="0 0 21 22" fill="none"
    xmlns="http://www.w3.org/2000/svg">
    <path d="M19.75 15C20.0815 15 20.3995 14.8683 20.6339 14.6339C20.8683 14.3995 21 14.0815 21 13.75C21 13.4185 20.8683 13.1005 20.6339 12.8661C20.3995 12.6317 20.0815 12.5 19.75 12.5H11V11.5H17.75C18.44 11.5 19 10.94 19 10.25C19 9.58 18.47 9.05 17.82 9.01L7.87 9L9.35 6.4C9.44 6.23 9.49 6.06 9.49 5.86C9.49 5.6 9.4 5.36 9.23 5.16L8.12 4L0.94 10.8C0.34 11.36 0 12.15 0 12.97V19C0 20.66 1.34 22 3 22H16.75C17.0815 22 17.3995 21.8683 17.6339 21.6339C17.8683 21.3995 18 21.0815 18 20.75C18 20.4185 17.8683 20.1005 17.6339 19.8661C17.3995 19.6317 17.0815 19.5 16.75 19.5H11V18.5H18.75C19.0815 18.5 19.3995 18.3683 19.6339 18.1339C19.8683 17.8995 20 17.5815 20 17.25C20 16.9185 19.8683 16.6005 19.6339 16.3661C19.3995 16.1317 19.0815 16 18.75 16H11V15H19.75ZM9 20H3C2.45 20 2 19.55 2 19V13C2 12.61 2.23 12.36 2.36 12.25L6 8.87V11H9V20ZM12.5 8C13.33 8 14 7.33 14 6.5C14 5.66 12.5 4 12.5 4C12.5 4 11 5.66 11 6.5C11 7.33 11.67 8 12.5 8ZM17.5 0C17.5 0 15 2.83 15 4.5C15 5.16304 15.2634 5.79893 15.7322 6.26777C16.2011 6.73661 16.837 7 17.5 7C18.163 7 18.7989 6.73661 19.2678 6.26777C19.7366 5.79893 20 5.16304 20 4.5C20 2.83 17.5 0 17.5 0ZM17.5 5.5C16.95 5.5 16.5 5.05 16.5 4.5C16.5 4.1 16.93 3.28 17.5 2.45C18.07 3.28 18.5 4.1 18.5 4.5C18.5 5.05 18.05 5.5 17.5 5.5Z" fill="currentColor"/>
</svg>
