<svg width="20" height="20" viewBox="0 0 20 20" fill="none"
    xmlns="http://www.w3.org/2000/svg">
    <path d="M1.75517 8.82517L8.82517 1.75517C9.95201 0.631199 11.4786 0 13.0702 0C14.6617 0 16.1883 0.631199 17.3152 1.75517C19.6552 4.09517 19.6552 7.89517 17.3152 10.2452L10.2452 17.3152C7.89517 19.6552 4.09517 19.6552 1.75517 17.3152C0.631199 16.1883 0 14.6617 0 13.0702C0 11.4786 0.631199 9.95201 1.75517 8.82517ZM3.17517 10.2452C2.67641 10.7394 2.31744 11.357 2.13477 12.035C1.9521 12.713 1.95224 13.4272 2.13517 14.1052L8.12517 8.12517L12.3652 12.3652L15.8952 8.82517C16.2682 8.45534 16.5643 8.01529 16.7664 7.53042C16.9684 7.04555 17.0725 6.52546 17.0725 6.00017C17.0725 5.47488 16.9684 4.95479 16.7664 4.46992C16.5643 3.98505 16.2682 3.545 15.8952 3.17517C15.5253 2.80213 15.0853 2.50603 14.6004 2.30396C14.1156 2.10189 13.5955 1.99786 13.0702 1.99786C12.5449 1.99786 12.0248 2.10189 11.5399 2.30396C11.055 2.50603 10.615 2.80213 10.2452 3.17517L3.17517 10.2452Z" fill="currentColor"/>
</svg>
