<svg width="12" height="15" viewBox="0 0 12 15" fill="none"
    xmlns="http://www.w3.org/2000/svg">
    <path d="M3.75 7.5H8.25H3.75ZM3.75 10.5H8.25H3.75ZM9.75 14.25H2.25C1.85218 14.25 1.47064 14.092 1.18934 13.8107C0.908035 13.5294 0.75 13.1478 0.75 12.75V2.25C0.75 1.85218 0.908035 1.47064 1.18934 1.18934C1.47064 0.908035 1.85218 0.75 2.25 0.75H6.4395C6.6384 0.750042 6.82913 0.829088 6.96975 0.96975L11.0303 5.03025C11.1709 5.17087 11.25 5.3616 11.25 5.5605V12.75C11.25 13.1478 11.092 13.5294 10.8107 13.8107C10.5294 14.092 10.1478 14.25 9.75 14.25Z" stroke="currentColor" stroke-width="1.5" stroke-linecap="round" stroke-linejoin="round"/>
</svg>
